<svg width="922" height="110" viewBox="0 0 922 110" fill="none" xmlns="http://www.w3.org/2000/svg">
<path d="M0 108.031V106.491H7.161V1.771H0V0.231002H27.181C29.5423 0.231002 31.955 0.71867 34.419 1.69401C36.883 2.66934 39.1673 4.28633 41.272 6.545C43.428 8.80367 45.1477 11.858 46.431 15.708C47.7657 19.5067 48.433 24.2293 48.433 29.876C48.433 35.6767 47.7657 40.6817 46.431 44.891C45.0963 49.049 43.351 52.4627 41.195 55.132C39.039 57.75 36.729 59.7007 34.265 60.984C31.801 62.216 29.4397 62.832 27.181 62.832H18.634V106.491H25.641V108.031H0ZM18.634 61.292H24.255C26.257 61.292 28.1563 60.06 29.953 57.596C31.801 55.132 33.3153 51.5643 34.496 46.893C35.6767 42.1703 36.267 36.4723 36.267 29.799C36.267 23.485 35.728 18.249 34.65 14.091C33.572 9.933 32.1603 6.853 30.415 4.85101C28.721 2.79767 26.8473 1.771 24.794 1.771H18.634V61.292Z" fill="url(#paint0_linear_33_22)"/>
<path d="M150.215 109.263C147.084 109.263 144.671 108.39 142.977 106.645C141.334 104.9 140.205 102.615 139.589 99.792C139.024 96.9173 138.742 93.8117 138.742 90.475C138.742 86.9843 138.87 83.468 139.127 79.926C139.435 76.3327 139.589 73.0217 139.589 69.993C139.589 66.0917 139.178 62.909 138.357 60.445C137.587 57.981 136.201 56.1843 134.199 55.055C132.248 53.8743 129.476 53.284 125.883 53.284H121.417V106.491H128.424V108.031H102.783V106.491H109.944V1.771H102.783V0.231002H130.657C134.815 0.231002 138.511 1.10367 141.745 2.849C144.979 4.543 147.494 7.238 149.291 10.934C151.139 14.5787 152.063 19.3527 152.063 25.256C152.063 29.9273 151.447 33.9313 150.215 37.268C149.034 40.6047 147.443 43.351 145.441 45.507C143.49 47.6117 141.309 49.2287 138.896 50.358C136.483 51.4873 134.122 52.1803 131.812 52.437C137.305 52.591 141.386 53.6947 144.055 55.748C146.776 57.8013 148.572 60.7017 149.445 64.449C150.369 68.145 150.831 72.6623 150.831 78.001C150.831 80.311 150.78 82.6467 150.677 85.008C150.626 87.3693 150.6 89.6793 150.6 91.938C150.6 93.94 150.677 96.0703 150.831 98.329C151.036 100.536 151.396 102.41 151.909 103.95C152.474 105.49 153.295 106.26 154.373 106.26C154.835 106.26 155.246 106.08 155.605 105.721C156.016 105.31 156.247 104.848 156.298 104.335H157.761C157.658 105.413 157.196 106.311 156.375 107.03C155.605 107.749 154.655 108.288 153.526 108.647C152.397 109.058 151.293 109.263 150.215 109.263ZM121.417 51.744H127.423C130.606 51.744 133.095 50.589 134.892 48.279C136.74 45.969 138.049 42.8633 138.819 38.962C139.589 35.0093 139.974 30.5433 139.974 25.564C139.974 20.944 139.666 16.863 139.05 13.321C138.485 9.72767 137.356 6.90434 135.662 4.85101C133.968 2.79767 131.453 1.771 128.116 1.771H121.417V51.744Z" fill="url(#paint1_linear_33_22)"/>
<path d="M211.82 108.031V106.491H219.135V1.771H211.82V0.231002H238.077V1.771H230.608V106.491H238.077V108.031H211.82Z" fill="url(#paint2_linear_33_22)"/>
<path d="M304.618 108.031V106.491H311.702V62.755L296.995 1.771H290.373V0.231002H315.937V1.771H310.008L322.867 59.059H321.866L335.495 1.771H328.873V0.231002H343.503V1.771H337.189L323.252 61.215V106.491H329.643V108.031H304.618Z" fill="url(#paint3_linear_33_22)"/>
<path d="M385.549 108.031V106.491H392.71L409.265 0H411.883L428.669 106.491H435.522V108.031H409.111V106.491H416.041L405.184 31.108H405.954L394.481 106.491H400.718V108.031H385.549ZM397.176 82.236V80.619H414.501V82.236H397.176Z" fill="url(#paint4_linear_33_22)"/>
<path d="M484.446 108.031V106.491H491.453V1.771H484.446V0.231002H504.697L516.94 77.77H516.093L530.492 0.231002H549.664V1.771H542.427V106.491H549.664V108.031H524.486V106.491H530.877V2.849H531.57L512.396 108.031H510.164L492.454 1.463L492.993 1.54001V106.491H500.77V108.031H484.446Z" fill="url(#paint5_linear_33_22)"/>
<path d="M723.299 109.263C720.168 109.263 717.756 108.39 716.062 106.645C714.419 104.9 713.29 102.615 712.674 99.792C712.109 96.9173 711.826 93.8117 711.826 90.475C711.826 86.9843 711.955 83.468 712.211 79.926C712.519 76.3327 712.674 73.0217 712.674 69.993C712.674 66.0917 712.263 62.909 711.441 60.445C710.671 57.981 709.286 56.1843 707.284 55.055C705.333 53.8743 702.561 53.284 698.967 53.284H694.501V106.491H701.508V108.031H675.867V106.491H683.029V1.771H675.867V0.231002H703.742C707.9 0.231002 711.595 1.10367 714.829 2.849C718.063 4.543 720.579 7.238 722.375 10.934C724.223 14.5787 725.148 19.3527 725.148 25.256C725.148 29.9273 724.531 33.9313 723.299 37.268C722.119 40.6047 720.528 43.351 718.526 45.507C716.575 47.6117 714.393 49.2287 711.98 50.358C709.568 51.4873 707.206 52.1803 704.896 52.437C710.389 52.591 714.47 53.6947 717.139 55.748C719.86 57.8013 721.657 60.7017 722.529 64.449C723.453 68.145 723.915 72.6623 723.915 78.001C723.915 80.311 723.864 82.6467 723.761 85.008C723.71 87.3693 723.685 89.6793 723.685 91.938C723.685 93.94 723.761 96.0703 723.915 98.329C724.121 100.536 724.48 102.41 724.993 103.95C725.558 105.49 726.38 106.26 727.458 106.26C727.92 106.26 728.33 106.08 728.69 105.721C729.1 105.31 729.331 104.848 729.383 104.335H730.846C730.743 105.413 730.281 106.311 729.459 107.03C728.689 107.749 727.74 108.288 726.61 108.647C725.481 109.058 724.378 109.263 723.299 109.263ZM694.501 51.744H700.508C703.69 51.744 706.18 50.589 707.977 48.279C709.825 45.969 711.134 42.8633 711.904 38.962C712.674 35.0093 713.058 30.5433 713.058 25.564C713.058 20.944 712.751 16.863 712.135 13.321C711.57 9.72767 710.441 6.90434 708.747 4.85101C707.053 2.79767 704.537 1.771 701.201 1.771H694.501V51.744Z" fill="url(#paint6_linear_33_22)"/>
<path d="M780.438 108.031V106.491H787.599L804.154 0H806.772L823.558 106.491H830.411V108.031H804V106.491H810.93L800.073 31.108H800.843L789.37 106.491H795.607V108.031H780.438ZM792.065 82.236V80.619H809.39V82.236H792.065Z" fill="url(#paint7_linear_33_22)"/>
<path d="M895.594 109.956C892.258 109.956 889.511 109.006 887.355 107.107C885.199 105.156 883.582 102.615 882.504 99.484C881.478 96.3527 880.964 93.016 880.964 89.474C880.964 86.702 881.401 84.7513 882.273 83.622C883.197 82.4927 884.404 81.928 885.892 81.928C887.33 81.928 888.485 82.467 889.357 83.545C890.23 84.623 890.666 86.4197 890.666 88.935C890.666 90.5263 890.384 91.9637 889.819 93.247C889.255 94.5303 888.69 95.788 888.125 97.02C887.561 98.2007 887.278 99.5097 887.278 100.947C887.278 103.052 887.971 104.72 889.357 105.952C890.743 107.184 892.335 107.8 894.131 107.8C896.441 107.8 898.366 106.311 899.906 103.334C901.498 100.305 902.293 95.48 902.293 88.858V1.771H894.516V0.231002H921.158V1.771H913.843V77.462C913.843 83.93 913.227 89.2687 911.995 93.478C910.763 97.6873 909.172 100.998 907.221 103.411C905.322 105.824 903.32 107.518 901.215 108.493C899.162 109.468 897.288 109.956 895.594 109.956Z" fill="url(#paint8_linear_33_22)"/>
<defs>
<linearGradient id="paint0_linear_33_22" x1="460.227" y1="108.031" x2="460.227" y2="-37.969" gradientUnits="userSpaceOnUse">
<stop stop-color="#0F0F23"/>
<stop offset="1" stop-color="#54548E"/>
</linearGradient>
<linearGradient id="paint1_linear_33_22" x1="460.227" y1="108.031" x2="460.227" y2="-37.969" gradientUnits="userSpaceOnUse">
<stop stop-color="#0F0F23"/>
<stop offset="1" stop-color="#54548E"/>
</linearGradient>
<linearGradient id="paint2_linear_33_22" x1="460.227" y1="108.031" x2="460.227" y2="-37.969" gradientUnits="userSpaceOnUse">
<stop stop-color="#0F0F23"/>
<stop offset="1" stop-color="#54548E"/>
</linearGradient>
<linearGradient id="paint3_linear_33_22" x1="460.227" y1="108.031" x2="460.227" y2="-37.969" gradientUnits="userSpaceOnUse">
<stop stop-color="#0F0F23"/>
<stop offset="1" stop-color="#54548E"/>
</linearGradient>
<linearGradient id="paint4_linear_33_22" x1="460.227" y1="108.031" x2="460.227" y2="-37.969" gradientUnits="userSpaceOnUse">
<stop stop-color="#0F0F23"/>
<stop offset="1" stop-color="#54548E"/>
</linearGradient>
<linearGradient id="paint5_linear_33_22" x1="460.227" y1="108.031" x2="460.227" y2="-37.969" gradientUnits="userSpaceOnUse">
<stop stop-color="#0F0F23"/>
<stop offset="1" stop-color="#54548E"/>
</linearGradient>
<linearGradient id="paint6_linear_33_22" x1="460.227" y1="108.031" x2="460.227" y2="-37.969" gradientUnits="userSpaceOnUse">
<stop stop-color="#0F0F23"/>
<stop offset="1" stop-color="#54548E"/>
</linearGradient>
<linearGradient id="paint7_linear_33_22" x1="460.227" y1="108.031" x2="460.227" y2="-37.969" gradientUnits="userSpaceOnUse">
<stop stop-color="#0F0F23"/>
<stop offset="1" stop-color="#54548E"/>
</linearGradient>
<linearGradient id="paint8_linear_33_22" x1="460.227" y1="108.031" x2="460.227" y2="-37.969" gradientUnits="userSpaceOnUse">
<stop stop-color="#0F0F23"/>
<stop offset="1" stop-color="#54548E"/>
</linearGradient>
</defs>
</svg>
